<?xml version="1.0" standalone="no"?>
<!DOCTYPE svg PUBLIC "-//W3C//DTD SVG 20010904//EN"
 "http://www.w3.org/TR/2001/REC-SVG-20010904/DTD/svg10.dtd">
<svg version="1.0" xmlns="http://www.w3.org/2000/svg"
 width="1464.000000pt" height="426.000000pt" viewBox="0 0 1464.000000 426.000000"
 preserveAspectRatio="xMidYMid meet">

<g transform="translate(0.000000,426.000000) scale(0.100000,-0.100000)"
fill="#000000" stroke="none">
<path d="M7 4123 c-4 -71 -7 -836 -7 -1700 l0 -1573 1178 0 1179 0 458 596
c251 327 461 592 465 587 12 -14 681 -880 799 -1036 l112 -147 60 0 c32 0 59
2 59 3 0 2 -28 40 -62 84 -35 45 -119 154 -188 243 -69 89 -177 228 -240 309
-63 82 -198 255 -298 385 -101 130 -181 242 -179 249 3 7 78 107 167 222 247
323 590 781 655 874 l58 84 -59 -8 c-32 -4 -62 -12 -66 -18 -3 -7 -167 -223
-363 -482 -196 -258 -380 -500 -408 -538 -41 -54 -54 -65 -63 -55 -7 7 -191
254 -409 548 -223 301 -406 538 -418 543 -12 4 -41 7 -66 5 l-45 -3 442 -588
c243 -323 442 -590 442 -593 0 -5 -426 -562 -600 -784 -36 -47 -119 -154 -184
-238 l-118 -152 -1104 0 -1104 0 0 815 0 815 113 0 c61 1 516 2 1009 3 493 1
898 4 901 7 2 3 7 21 10 41 l5 37 -186 7 c-103 4 -483 5 -845 3 -362 -3 -737
-3 -833 0 l-174 5 0 738 0 739 868 0 c478 0 964 3 1080 7 l212 6 0 44 0 43
-1123 0 -1124 0 -6 -127z"/>
<path d="M5410 3339 c-81 -14 -216 -57 -285 -91 -203 -103 -348 -259 -467
-504 l-53 -108 -3 327 c-3 362 1 345 -67 333 l-35 -7 0 -1639 0 -1640 50 0 50
0 1 753 c0 539 3 745 11 727 57 -135 144 -295 193 -353 141 -170 357 -289 598
-327 109 -18 329 -8 431 19 102 27 215 76 291 126 137 91 280 265 360 438 167
361 188 841 56 1237 -111 330 -334 567 -626 667 -143 49 -356 66 -505 42z
m371 -105 c315 -64 542 -281 668 -637 51 -145 71 -264 78 -453 15 -435 -94
-760 -337 -1005 -96 -97 -114 -111 -210 -157 -153 -73 -214 -87 -400 -87 -170
0 -241 13 -379 67 -219 86 -404 280 -505 528 -115 283 -126 739 -25 1050 167
516 616 796 1110 694z"/>
<path d="M7895 3340 c-192 -30 -367 -115 -504 -244 -93 -88 -186 -237 -212
-341 -8 -32 -14 -42 -20 -33 -5 7 -9 143 -9 302 0 270 -1 288 -17 281 -10 -4
-30 -12 -45 -17 l-28 -10 0 -1214 0 -1214 44 0 45 0 4 758 c5 821 4 816 63
1012 84 277 276 491 519 579 95 34 238 61 327 61 l57 0 10 37 c6 20 8 39 5 42
-9 9 -185 10 -239 1z"/>
<path d="M9049 3335 c-639 -121 -1005 -798 -868 -1605 29 -175 61 -278 124
-405 69 -140 160 -255 266 -335 98 -73 148 -99 257 -134 119 -37 248 -56 388
-56 363 0 659 133 846 380 96 126 173 317 192 474 l6 49 -41 -6 c-22 -3 -42
-7 -45 -9 -2 -3 -15 -47 -28 -99 -77 -304 -249 -515 -504 -619 -151 -61 -230
-75 -432 -74 -159 0 -196 3 -265 22 -87 24 -215 82 -283 129 -164 112 -297
320 -358 560 -29 116 -54 292 -54 385 l0 71 415 -7 c228 -4 688 -4 1021 0
l607 7 -6 131 c-27 606 -332 1026 -822 1132 -101 22 -322 27 -416 9z m391
-101 c437 -89 705 -449 755 -1011 l6 -73 -813 0 c-447 0 -884 -3 -970 -7 -148
-6 -158 -5 -165 13 -10 26 22 235 53 340 54 190 182 406 308 521 219 200 520
279 826 217z"/>
<path d="M11288 3339 c-321 -47 -548 -220 -612 -466 -20 -76 -21 -240 -1 -312
23 -87 65 -162 124 -222 99 -99 259 -160 730 -279 442 -111 546 -151 663 -259
233 -214 184 -591 -102 -773 -160 -102 -374 -147 -635 -135 -274 13 -465 86
-612 235 -100 101 -157 242 -182 452 -7 52 -13 95 -14 96 -1 1 -21 5 -44 9
-42 7 -43 6 -43 -22 1 -60 21 -216 36 -281 23 -92 85 -224 136 -287 158 -192
435 -294 803 -295 222 0 382 31 530 104 246 121 365 306 365 563 0 168 -44
285 -145 389 -109 111 -300 188 -765 307 -264 68 -456 129 -543 173 -217 110
-292 415 -156 638 73 120 236 220 425 262 119 26 367 24 499 -4 315 -67 499
-270 522 -578 l6 -72 46 -5 c25 -3 48 -3 50 -1 11 10 -24 230 -50 309 -79 247
-289 401 -616 450 -104 16 -321 18 -415 4z"/>
<path d="M13468 3335 c-257 -43 -460 -173 -547 -350 -82 -166 -81 -383 2 -538
93 -175 242 -246 815 -388 333 -83 410 -107 512 -159 196 -103 289 -241 290
-431 0 -151 -51 -272 -159 -371 -165 -150 -396 -217 -711 -205 -354 14 -609
146 -721 372 -45 93 -65 165 -83 305 -7 55 -15 102 -17 104 -2 2 -23 7 -46 11
l-41 6 4 -63 c14 -192 53 -347 115 -455 98 -172 282 -289 540 -344 141 -31
478 -34 607 -6 266 57 460 189 546 370 47 99 61 165 60 282 0 160 -41 267
-141 375 -49 53 -75 70 -177 120 -150 72 -271 112 -596 195 -525 135 -637 190
-715 348 -94 194 -51 418 111 569 137 128 426 198 697 169 229 -25 368 -81
483 -196 106 -105 154 -220 179 -427 5 -41 10 -48 28 -48 12 0 33 -3 46 -7
l24 -6 -6 89 c-12 173 -73 341 -158 437 -78 90 -216 172 -351 211 -154 44
-427 58 -590 31z"/>
</g>
</svg>
