<?xml version="1.0" standalone="no"?>
<!DOCTYPE svg PUBLIC "-//W3C//DTD SVG 20010904//EN"
 "http://www.w3.org/TR/2001/REC-SVG-20010904/DTD/svg10.dtd">
<svg version="1.0" xmlns="http://www.w3.org/2000/svg"
 width="674.000000pt" height="674.000000pt" viewBox="0 0 674.000000 674.000000"
 preserveAspectRatio="xMidYMid meet">

<g transform="translate(0.000000,674.000000) scale(0.100000,-0.100000)"
fill="#000000" stroke="none">
<path d="M3203 6729 c-266 -26 -572 -149 -803 -323 -36 -27 -509 -493 -1051
-1035 -1078 -1078 -1062 -1061 -1178 -1296 -204 -411 -222 -862 -52 -1297 52
-131 151 -298 248 -416 40 -48 503 -517 1030 -1042 1047 -1045 1034 -1033
1268 -1149 411 -204 862 -222 1297 -52 131 52 298 151 416 248 48 40 517 503
1042 1030 1045 1047 1033 1034 1149 1268 206 415 222 876 47 1307 -59 145
-147 290 -251 414 -46 54 -510 524 -1032 1044 -1036 1034 -1025 1023 -1258
1139 -184 91 -352 139 -564 160 -116 12 -175 12 -308 0z m392 -2273 c210 -46
383 -137 535 -283 175 -166 281 -357 332 -598 16 -78 16 -333 0 -410 -48 -221
-141 -401 -289 -555 -166 -175 -357 -281 -598 -332 -78 -16 -333 -16 -410 0
-221 48 -401 141 -555 289 -175 166 -281 357 -332 598 -16 78 -16 333 0 410
48 221 141 401 289 555 42 45 106 104 142 131 129 96 308 174 461 199 41 6 82
13 90 15 35 9 271 -5 335 -19z"/>
</g>
</svg>
